<?xml version="1.0" encoding="utf-8"?>
<!-- Generator: Adobe Illustrator 25.0.0, SVG Export Plug-In . SVG Version: 6.00 Build 0)  -->
<svg version="1.1" id="图层_1" xmlns="http://www.w3.org/2000/svg" xmlns:xlink="http://www.w3.org/1999/xlink" x="0px" y="0px"
	 viewBox="0 0 16 16" style="enable-background:new 0 0 16 16;" xml:space="preserve">
<style type="text/css">
	.st0{fill-rule:evenodd;clip-rule:evenodd;}
</style>
<g>
	<path class="st0" d="M1.5,8c0-3.6,2.9-6.5,6.5-6.5s6.5,2.9,6.5,6.5c0,0.3,0,0.7-0.1,1h1.5C16,8.7,16,8.3,16,8c0-4.4-3.6-8-8-8
		S0,3.6,0,8s3.6,8,8,8c0.3,0,0.7,0,1-0.1v-1.5c-0.3,0.1-0.7,0.1-1,0.1C4.4,14.5,1.5,11.6,1.5,8z"/>
	<polygon class="st0" points="11,7.7 11,6.6 9.2,6.6 10.2,5.1 9,4.5 8,6.1 7,4.5 5.7,5.1 6.8,6.6 5,6.6 5,7.7 7.3,7.7 7.3,8.2 
		5,8.2 5,9.4 7.3,9.4 7.3,11.5 8.6,11.5 8.6,9.4 11,9.4 11,8.2 8.6,8.2 8.6,7.7 	"/>
	<path class="st0" d="M13.1,11h-1.3l0.5-0.5c0.1-0.1,0.1-0.4,0-0.5l-0.4-0.4c-0.1-0.1-0.4-0.1-0.5,0l-1.7,1.7l0,0
		c-0.2,0.2-0.2,0.2,0,0.4l1.7,1.7c0.1,0.1,0.4,0.1,0.5,0l0.4-0.4c0.1-0.1,0.1-0.4,0-0.5l-0.4-0.4h1.3c0.9,0,1.7,0.6,1.7,1.4
		s-0.7,1.4-1.7,1.4h-2.5V16h2.5c1.6,0,2.9-1.1,2.9-2.5C16,12.1,14.7,11,13.1,11z"/>
</g>
</svg>
