<?xml version="1.0" encoding="utf-8"?>
<!-- Generator: Adobe Illustrator 25.0.0, SVG Export Plug-In . SVG Version: 6.00 Build 0)  -->
<svg version="1.1" id="图层_1" xmlns="http://www.w3.org/2000/svg" xmlns:xlink="http://www.w3.org/1999/xlink" x="0px" y="0px"
	 viewBox="0 0 16 16" style="enable-background:new 0 0 16 16;" xml:space="preserve">
<g>
	<polygon points="12,10 12,8.9 11,8.9 11.5,8 10.5,7.5 10,8.4 9.5,7.5 8.5,8 9,8.9 8,8.9 8,10 9.4,10 9.4,10.5 8,10.5 8,11.6 
		9.4,11.6 9.4,13 10.5,13 10.5,11.6 12,11.6 12,10.5 10.5,10.5 10.5,10 	"/>
	<path d="M2,1v14h2l1-1l1,1l1-1l1,1h4.5H14v-1.5V1H2z M11.8,13.5H8.5L7,12l-1,1l-1-1l-1.5,1.5v-11h9v11H11.8z"/>
	<rect x="4.5" y="3.5" width="4.6" height="1.3"/>
	<rect x="4.5" y="5.8" width="4" height="1.4"/>
</g>
</svg>
