<?xml version="1.0" encoding="utf-8"?>
<!-- Generator: Adobe Illustrator 25.0.0, SVG Export Plug-In . SVG Version: 6.00 Build 0)  -->
<svg version="1.1" id="图层_1" xmlns="http://www.w3.org/2000/svg" xmlns:xlink="http://www.w3.org/1999/xlink" x="0px" y="0px"
	 viewBox="0 0 16 16" style="enable-background:new 0 0 16 16;" xml:space="preserve">
<g>
	<polygon points="10.5,8.5 8.5,8.5 8.5,8 10.5,8 10.5,6.9 9,6.9 9.8,5.5 8.9,5 8,6.4 7.1,5 6.1,5.5 7,6.9 5.5,6.9 5.5,8 7.4,8 
		7.4,8.5 5.5,8.5 5.5,9.6 7.4,9.6 7.4,11.5 8.5,11.5 8.5,9.6 10.5,9.6 	"/>
	<polygon points="11.2,11.7 11.8,12.3 9,12.3 9,13.7 11.8,13.7 11.2,14.3 12,15 14,13 12,11 	"/>
	<polygon points="2,1 2,15 8.5,15 8.5,13.5 3.5,13.5 3.5,2.5 12.5,2.5 12.5,11 14,11 14,1 	"/>
</g>
</svg>
