<?xml version="1.0" encoding="utf-8"?>
<!-- Generator: Adobe Illustrator 25.0.0, SVG Export Plug-In . SVG Version: 6.00 Build 0)  -->
<svg version="1.1" id="图层_1" xmlns="http://www.w3.org/2000/svg" xmlns:xlink="http://www.w3.org/1999/xlink" x="0px" y="0px"
	 viewBox="0 0 16 16" style="enable-background:new 0 0 16 16;" xml:space="preserve">
<path d="M10.5,8V6.9H9l0.8-1.4L8.9,5L8,6.4L7.1,5l-1,0.5L7,6.9H5.5V8h1.9v0.5H5.5v1.1h1.9v1.9h1.1V9.6h2V8.5h-2V8H10.5z"/>
<path d="M8,0C7.7,0.3,2.2,2.4,1.5,2.4V9c0,2.6,1.1,3.8,2.4,4.7C4.8,14.3,5.4,15,8.1,16c0.3,0,3.4-2,4.5-2.7c0.6-0.4,1.8-1.1,1.8-3.8
	V2.4L8,0z M13,9.2c0,2-0.6,2.6-1.1,2.9c-0.9,0.6-3.6,2.2-3.8,2.2c-1.8-0.8-2.6-1.5-3.3-1.9C3.9,11.7,3,10.8,3,8.8V3.6
	c0.6,0,4.8-1.7,5-1.9l5,1.9V9.2z"/>
</svg>
