<?xml version="1.0" encoding="utf-8"?>
<!-- Generator: Adobe Illustrator 25.0.0, SVG Export Plug-In . SVG Version: 6.00 Build 0)  -->
<svg version="1.1" id="图层_1" xmlns="http://www.w3.org/2000/svg" xmlns:xlink="http://www.w3.org/1999/xlink" x="0px" y="0px"
	 viewBox="0 0 16 16" style="enable-background:new 0 0 16 16;" xml:space="preserve">
<style type="text/css">
	.st0{fill-rule:evenodd;clip-rule:evenodd;}
</style>
<g>
	<path class="st0" d="M15.3,12.5c0-0.2,0-0.3,0-0.5s0-0.3,0-0.5l0.6-0.5c0.1-0.1,0.1-0.2,0.1-0.3c-0.2-0.5-0.4-0.9-0.7-1.2
		c-0.1-0.1-0.2-0.1-0.3-0.1l-0.7,0.3c-0.3-0.2-0.6-0.4-0.9-0.5l-0.1-0.8c0-0.1-0.1-0.2-0.2-0.2c-0.5-0.1-1-0.1-1.4,0
		c-0.1,0-0.2,0.1-0.2,0.2l-0.1,0.8c-0.3,0.1-0.6,0.3-0.9,0.5l-1-0.4c-0.1,0-0.2,0-0.3,0.1c-0.3,0.4-0.6,0.8-0.7,1.2
		c0,0.1,0,0.2,0.1,0.3l0.6,0.5c0,0.2,0,0.3,0,0.5c0,0.2,0,0.3,0,0.5L8.5,13c-0.1,0.1-0.1,0.2-0.1,0.3c0.2,0.5,0.4,0.9,0.7,1.2
		c0.1,0.1,0.2,0.1,0.3,0.1l0.7-0.3c0.3,0.2,0.6,0.4,0.9,0.5l0.1,0.8c0,0.1,0.1,0.2,0.2,0.2c0.2,0,0.5,0.1,0.7,0.1s0.5,0,0.7-0.1
		c0.1,0,0.2-0.1,0.2-0.2l0.1-0.8c0.3-0.1,0.6-0.3,0.9-0.5l0.7,0.3c0.1,0,0.2,0,0.3-0.1c0.3-0.4,0.6-0.8,0.7-1.2
		c0.4-0.1,0.4-0.2,0.3-0.3L15.3,12.5z M14.9,14.1l-0.8-0.3L13.8,14c-0.2,0.2-0.5,0.3-0.7,0.4l-0.3,0.1l-0.2,0.9c-0.3,0-0.5,0-0.8,0
		l-0.2-0.9l-0.3-0.1c-0.3-0.1-0.5-0.2-0.7-0.4l-0.3-0.2L9.5,14c-0.2-0.2-0.3-0.4-0.4-0.7l0.7-0.6l-0.1-0.4c0-0.1,0-0.3,0-0.4
		c0-0.1,0-0.3,0-0.4l0.1-0.4l-0.7-0.6c0.1-0.2,0.2-0.5,0.4-0.7l0.8,0.3l0.3-0.2c0.2-0.2,0.4-0.3,0.7-0.4l0.3-0.1l0.2-0.9
		c0.3,0,0.5,0,0.8,0l0.2,0.9l0.3,0.1c0.3,0.1,0.5,0.2,0.7,0.4l0.3,0.2l0.8-0.3c0.2,0.2,0.3,0.4,0.4,0.7l-0.7,0.6l0.1,0.5
		c0,0.1,0,0.3,0,0.4s0,0.3,0,0.4l-0.1,0.4l0.7,0.6C15.2,13.6,15.1,13.9,14.9,14.1z"/>
	<path class="st0" d="M12.2,10.3c-0.9,0-1.6,0.7-1.6,1.6c0,0.9,0.7,1.6,1.6,1.6c0.9,0,1.6-0.7,1.6-1.6C13.8,11,13.1,10.3,12.2,10.3z
		 M12.9,12.6c-0.2,0.2-0.4,0.3-0.7,0.3s-0.5-0.1-0.7-0.3c-0.2-0.2-0.3-0.4-0.3-0.7c0-0.3,0.1-0.5,0.3-0.7s0.4-0.3,0.7-0.3
		s0.5,0.1,0.7,0.3c0.2,0.2,0.3,0.4,0.3,0.7C13.2,12.2,13.1,12.4,12.9,12.6z"/>
	<path class="st0" d="M4.2,13.2c-0.5-0.2-0.9-0.4-1.1-0.6c-0.3-0.2-0.4-0.4-0.4-0.6v-0.6c1,0.6,2.5,1.1,4.3,1.2c0-0.2,0-0.4,0-0.6
		c0-0.3,0-0.5,0.1-0.8c-1.2,0-2.1-0.2-2.9-0.5c-0.5-0.2-0.9-0.4-1.1-0.6C2.8,9.9,2.7,9.7,2.7,9.5V8.6c1.1,0.7,2.8,1.2,4.8,1.3
		c0.2-0.5,0.5-1,0.9-1.4c-0.1,0-0.3,0-0.4,0C6.7,8.5,5.4,8.3,4.5,8C4,8,3.6,7.8,3.3,7.6C3,7.4,2.8,7.2,2.7,7.1V5.9
		C3.9,6.6,5.8,7.1,8,7.1s4.1-0.5,5.3-1.3V7c0,0-0.1,0-0.1,0.1c0.5,0.1,0.9,0.3,1.4,0.5V4.1c-0.1-0.9-0.9-1.7-2.1-2.2
		C11.4,1.3,9.8,1,8,1S4.6,1.3,3.5,1.9C2.9,2.1,2.4,2.5,2,2.8C1.7,3.2,1.5,3.6,1.5,4.1v8.2c0,0.1,0.1,0.4,0.2,0.6
		c0.2,0.3,0.5,0.6,0.9,0.9C3.6,14.4,5.2,15,8,15c-0.3-0.4-0.5-0.9-0.7-1.3C6.1,13.6,5,13.4,4.2,13.2z M3.1,3.5
		C3.3,3.2,3.7,3,4.2,2.9c1-0.3,2.3-0.6,3.8-0.6s2.8,0.2,3.8,0.6c0.5,0.2,0.9,0.4,1.1,0.6c0.3,0.2,0.4,0.4,0.4,0.6
		c0,0.2-0.1,0.4-0.4,0.6c-0.3,0.2-0.6,0.4-1.1,0.6c-1,0.3-2.3,0.6-3.8,0.6S5.2,5.6,4.2,5.3C3.7,5.1,3.3,4.9,3.1,4.7
		C2.8,4.5,2.7,4.3,2.7,4.1C2.7,3.9,2.8,3.7,3.1,3.5z"/>
</g>
</svg>
